<svg width="24" height="24" viewBox="0 0 24 24" fill="none" xmlns="http://www.w3.org/2000/svg">
<path fill-rule="evenodd" clip-rule="evenodd" d="M15.75 3C16.1297 3 16.4435 3.28215 16.4932 3.64823L16.5 3.75V4.5H21.375C21.9963 4.5 22.5 5.00368 22.5 5.625V19.875C22.5 20.4963 21.9963 21 21.375 21H2.625C2.00368 21 1.5 20.4963 1.5 19.875V5.625C1.5 5.00368 2.00368 4.5 2.625 4.5H7.5V3.75C7.5 3.33579 7.83579 3 8.25 3C8.6297 3 8.94349 3.28215 8.99315 3.64823L9 3.75V4.5H15V3.75C15 3.33579 15.3358 3 15.75 3ZM21 10.5H3V19.5H21V10.5ZM18.75 13.5V16.5H15.75V13.5H18.75ZM7.5 6H3V9H21V6H16.5V6.75C16.5 7.16421 16.1642 7.5 15.75 7.5C15.3703 7.5 15.0565 7.21785 15.0068 6.85177L15 6.75V6H9V6.75C9 7.16421 8.66421 7.5 8.25 7.5C7.8703 7.5 7.55651 7.21785 7.50685 6.85177L7.5 6.75V6Z" fill="black"/>
</svg>
