<svg width="24" height="24" viewBox="0 0 24 24" fill="none" xmlns="http://www.w3.org/2000/svg">
<path d="M4.07038 9.46154H5.70474C6.38279 9.46154 7.03846 9.2244 7.55326 8.79296C9.48095 7.17748 10.8107 4.97413 11.5403 2.59647L11.7216 2.00565C11.9047 1.40876 12.4666 1 13.104 1C14.2997 1 15.269 1.94769 15.269 3.11672V3.45838C15.269 4.94805 14.9723 6.39047 14.3954 7.76923H19.9658C21.241 7.76923 22.0169 8.79203 21.9997 9.81809C21.9893 10.4396 21.6879 11.0623 21.03 11.4597L20.7718 11.6156C20.345 11.8734 20.2755 12.4548 20.6299 12.8026C21.3787 13.5376 21.1739 14.7768 20.2266 15.2417L19.8296 15.4364C19.3074 15.6927 19.1519 16.354 19.5021 16.8124C20.0665 17.5508 19.9955 18.5892 19.3305 19.2419L18.5459 20.0119C18.3801 20.1747 18.329 20.4187 18.4161 20.6325C18.8784 21.7665 18.0273 23 16.783 23H15.9132C13.3403 23 10.8695 22.0616 8.6769 20.7453L7.56826 20.0799C7.06227 19.7762 6.48014 19.6154 5.8864 19.6154H3.98757C3.4831 19.6154 3.02944 19.3152 2.84208 18.8571C2.25382 17.4193 1.98039 15.9789 2.00109 14.5385C2.02179 13.0981 2.33664 11.6577 2.92489 10.2198C3.11225 9.76184 3.56591 9.46154 4.07038 9.46154Z" fill="#1C2B33" style="fill:#1C2B33;fill:color(display-p3 0.1098 0.1686 0.2000);fill-opacity:1;"/>
</svg>
