<svg width="24" height="24" viewBox="0 0 24 24" fill="none" xmlns="http://www.w3.org/2000/svg">
<path d="M11.5037 21.1102L11.5037 21.1101C12.2809 18.5772 13.7069 16.1986 15.8043 14.4408L11.5037 21.1102ZM11.5037 21.1102L11.3226 21.7008C11.3225 21.7008 11.3225 21.7009 11.3225 21.701C11.3225 21.701 11.3225 21.701 11.3225 21.701C11.2717 21.8661 11.1066 22 10.896 22C10.2313 22 9.73112 21.479 9.73112 20.8833V20.5416C9.73112 19.188 10.0001 17.8764 10.5271 16.6167L11.107 15.2308M11.5037 21.1102L11.107 15.2308M11.107 15.2308H9.60463M11.107 15.2308H9.60463M9.60463 15.2308H4.0344C3.38533 15.2308 2.99113 14.7357 3.00014 14.1987C3.00507 13.9052 3.13749 13.6075 3.48707 13.3963L3.48709 13.3963M9.60463 15.2308L3.48709 13.3963M3.48709 13.3963L3.74502 13.2404C3.74513 13.2404 3.74523 13.2403 3.74533 13.2402C4.72639 12.6477 4.89534 11.2932 4.07083 10.4837L4.07067 10.4836M3.48709 13.3963L4.07067 10.4836M4.07067 10.4836C3.82047 10.2381 3.87759 9.82123 4.21406 9.65613L4.21417 9.65608M4.07067 10.4836L4.21417 9.65608M4.21417 9.65608L4.61086 9.46137M4.21417 9.65608L4.61086 9.46137M14.8086 4.11207L14.8085 4.11204C12.7101 2.8524 10.4183 2 8.08682 2H7.21714C6.65433 2 6.32665 2.5401 6.50988 2.99007L14.8086 4.11207ZM14.8086 4.11207L15.917 4.77739C15.9171 4.77742 15.9171 4.77745 15.9172 4.77749C16.5796 5.17521 17.3399 5.38462 18.1136 5.38462H20.0124C20.1215 5.38462 20.2027 5.44902 20.2323 5.52137L20.2324 5.52164M14.8086 4.11207L20.2324 5.52164M20.2324 5.52164C20.7718 6.83999 21.0177 8.14709 20.999 9.44717M20.2324 5.52164L20.999 9.44717M18.2953 13.5385H19.9297C20.0385 13.5385 20.1198 13.4743 20.1496 13.4014L18.2953 13.5385ZM18.2953 13.5385C17.385 13.5385 16.5012 13.8566 15.8045 14.4406L18.2953 13.5385ZM4.61086 9.46137C5.6959 8.92902 6.02802 7.54285 5.29237 6.58035L4.61086 9.46137ZM5.3699 5.47184C5.06669 5.76953 5.0332 6.24121 5.29234 6.58032L5.3699 5.47184ZM5.3699 5.47184C5.36993 5.47182 5.36995 5.4718 5.36998 5.47177M5.3699 5.47184L5.36998 5.47177M5.36998 5.47177L6.15453 4.70186L5.36998 5.47177ZM20.999 9.44717C20.9803 10.7487 20.6961 12.0659 20.1496 13.4014L20.999 9.44717ZM6.15455 4.70184C6.60763 4.25722 6.75147 3.58289 6.50994 2.99021L6.15455 4.70184Z" stroke="#1C2B33" style="stroke:#1C2B33;stroke:color(display-p3 0.1098 0.1686 0.2000);stroke-opacity:1;" stroke-width="2"/>
</svg>
