<svg width="24" height="24" viewBox="0 0 24 24" fill="none" xmlns="http://www.w3.org/2000/svg">
<path d="M19.9297 14.5385H18.2953C17.6173 14.5385 16.9615 14.7756 16.4468 15.2071C14.5191 16.8226 13.1893 19.026 12.4597 21.4035L12.2785 21.9943C12.0952 22.5913 11.5334 23 10.896 23C9.70027 23 8.73112 22.0523 8.73112 20.8833V20.5416C8.73112 19.052 9.0278 17.6095 9.60463 16.2308H4.0344C2.75918 16.2308 1.98306 15.2079 2.00028 14.1819C2.01071 13.5603 2.31226 12.9377 2.96995 12.5404L3.2282 12.3843C3.65512 12.1266 3.72468 11.5453 3.37027 11.1973C2.62128 10.4624 2.82614 9.22326 3.77355 8.75839L4.17039 8.5636C4.69262 8.30739 4.84826 7.64603 4.49785 7.18758C3.93354 6.44923 4.00449 5.41083 4.66949 4.75811L5.45413 3.98811C5.62003 3.82531 5.67099 3.58128 5.58386 3.36754C5.12181 2.23352 5.9727 1 7.21714 1H8.08682C10.6597 1 13.1305 1.93838 15.3232 3.25466L16.4318 3.92008C16.9377 4.22385 17.5199 4.38462 18.1136 4.38462H20.0124C20.5169 4.38462 20.9706 4.68483 21.1579 5.14294C21.7462 6.58072 22.0196 8.02122 21.9989 9.46154C21.9782 10.9019 21.6635 12.3424 21.0751 13.7801C20.8877 14.2382 20.4341 14.5385 19.9297 14.5385Z" fill="#1C2B33" style="fill:#1C2B33;fill:color(display-p3 0.1098 0.1686 0.2000);fill-opacity:1;"/>
</svg>
